<svg xmlns="http://www.w3.org/2000/svg" viewBox="0 0 64 64">
  <defs>
    <linearGradient id="bg" x1="0" y1="0" x2="1" y2="1">
      <stop offset="0" stop-color="#0b1220"/>
      <stop offset="1" stop-color="#182b22"/>
    </linearGradient>
    <linearGradient id="acc" x1="0" y1="0" x2="1" y2="1">
      <stop offset="0" stop-color="#22c55e"/>
      <stop offset="1" stop-color="#f59e0b"/>
    </linearGradient>
  </defs>
  <circle cx="32" cy="32" r="30" fill="url(#bg)" stroke="rgba(255,255,255,.18)" stroke-width="2"/>
  <path d="M32 18l3 3 4-1 2 4 4 1-1 4 3 3-3 3 1 4-4 1-2 4-4-1-3 3-3-3-4 1-2-4-4-1 1-4-3-3 3-3-1-4 4-1 2-4 4 1 3-3z"
        fill="rgba(255,255,255,.06)" stroke="url(#acc)" stroke-width="2" stroke-linejoin="round"/>
  <circle cx="32" cy="32" r="7" fill="url(#acc)" opacity=".9"/>
</svg>
